<?xml version="1.0" encoding="UTF-8"?>
<svg id="Capa_2" data-name="Capa 2" xmlns="http://www.w3.org/2000/svg" viewBox="0 0 400 113.12">
  <defs>
    <style>
      .cls-1 {
        fill: #1d70b7;
      }

      .cls-2 {
        fill: none;
      }

      .cls-3 {
        fill: #93c01f;
      }
    </style>
  </defs>
  <g id="Logosímbolo">
    <g>
      <path class="cls-3" d="m134.25,78.95h-18.85v33.83h-24.81V0h46.08c26.9,0,43.17,15.95,43.17,38.99v.33c0,26.1-20.3,39.63-45.59,39.63Zm20.46-39.48c0-11.11-7.74-17.08-20.14-17.08h-19.17v34.48h19.66c12.41,0,19.66-7.41,19.66-17.08v-.32Z"/>
      <path class="cls-1" d="m0,112.78V21.96h24.49v90.83H0Z"/>
      <path class="cls-1" d="m61.54,22.39v34.51h29.13v22.05h-29.13v33.35h-24.81V0h78.66v22.39h-53.85Z"/>
      <g>
        <path class="cls-1" d="m208.94,22.68v21.74h-3.81v-21.74h3.81Z"/>
        <path class="cls-1" d="m216.84,44.42h-3.75v-16.4h3.75v2.55c1.05-1.55,2.57-2.89,5.11-2.89,3.68,0,5.82,2.48,5.82,6.3v10.43h-3.75v-9.32c0-2.54-1.27-4.01-3.5-4.01s-3.68,1.52-3.68,4.07v9.25Z"/>
        <path class="cls-1" d="m234.82,44.42h-3.75v-16.4h3.75v2.55c1.05-1.55,2.57-2.89,5.11-2.89,3.69,0,5.82,2.48,5.82,6.3v10.43h-3.75v-9.32c0-2.54-1.27-4.01-3.5-4.01s-3.68,1.52-3.68,4.07v9.25Z"/>
        <path class="cls-1" d="m256.83,44.79c-4.99,0-8.67-3.82-8.67-8.51s3.71-8.6,8.73-8.6,8.7,3.82,8.7,8.54-3.71,8.57-8.76,8.57Zm0-13.82c-3,0-4.92,2.36-4.92,5.25s2.07,5.31,4.98,5.31,4.96-2.36,4.96-5.25-2.08-5.31-5.02-5.31Z"/>
        <path class="cls-1" d="m279.49,28.02h3.93l-6.69,16.52h-3.37l-6.72-16.52h4.03l4.4,12.05,4.43-12.05Z"/>
        <path class="cls-1" d="m295.4,44.42v-2.02c-1.12,1.34-2.82,2.36-5.29,2.36-3.1,0-5.82-1.77-5.82-5.06v-.06c0-3.54,2.82-5.28,6.62-5.28,1.98,0,3.25.28,4.52.68v-.41c0-2.27-1.43-3.51-4.03-3.51-1.83,0-3.19.4-4.67,1.02l-1.02-3.01c1.8-.81,3.56-1.37,6.22-1.37,4.83,0,7.18,2.55,7.18,6.93v9.72h-3.71Zm.09-6.96c-.96-.37-2.29-.65-3.75-.65-2.35,0-3.75.96-3.75,2.64v.06c0,1.55,1.39,2.42,3.16,2.42,2.47,0,4.33-1.4,4.33-3.45v-1.03Z"/>
        <path class="cls-1" d="m309.92,44.79c-4.86,0-8.45-3.82-8.45-8.51s3.59-8.6,8.48-8.6c3.1,0,5.02,1.15,6.53,2.83l-2.32,2.51c-1.14-1.21-2.35-2.05-4.24-2.05-2.73,0-4.71,2.36-4.71,5.25s2.01,5.31,4.89,5.31c1.76,0,3.06-.84,4.24-2.05l2.26,2.24c-1.61,1.8-3.5,3.07-6.69,3.07Z"/>
        <path class="cls-1" d="m318.89,25.5v-3.57h4.03v3.57h-4.03Zm.15,18.91v-16.4h3.75v16.4h-3.75Z"/>
        <path class="cls-1" d="m334.25,44.79c-4.98,0-8.67-3.82-8.67-8.51s3.71-8.6,8.73-8.6,8.7,3.82,8.7,8.54-3.71,8.57-8.76,8.57Zm0-13.82c-3,0-4.92,2.36-4.92,5.25s2.07,5.31,4.98,5.31,4.95-2.36,4.95-5.25-2.07-5.31-5.02-5.31Zm-1.42-5.03l3.28-5.09,3.4,1.52-3.78,3.57h-2.91Z"/>
        <path class="cls-1" d="m349.36,44.42h-3.75v-16.4h3.75v2.55c1.05-1.55,2.57-2.89,5.11-2.89,3.68,0,5.82,2.48,5.82,6.3v10.43h-3.75v-9.32c0-2.54-1.27-4.01-3.5-4.01s-3.68,1.52-3.68,4.07v9.25Z"/>
        <path class="cls-1" d="m212.04,75.88c1.83,0,3.12-.68,4.43-1.95l2.2,1.95c-1.55,1.87-3.69,3.08-6.69,3.08-4.73,0-8.39-3.45-8.39-8.54,0-4.72,3.31-8.57,7.99-8.57,5.2,0,7.83,4.1,7.83,8.85,0,.34-.03.65-.06,1.03h-12.01c.43,2.67,2.29,4.16,4.71,4.16Zm3.65-6.64c-.25-2.42-1.67-4.32-4.15-4.32-2.29,0-3.9,1.77-4.24,4.32h8.39Z"/>
        <path class="cls-1" d="m225.72,78.58h-3.74v-16.4h3.74v2.55c1.05-1.55,2.57-2.89,5.11-2.89,3.69,0,5.82,2.49,5.82,6.3v10.43h-3.75v-9.31c0-2.55-1.27-4.01-3.5-4.01s-3.69,1.52-3.69,4.07v9.25Z"/>
        <path class="cls-1" d="m264.6,60.32h-12.32v5.93h10.93v3.48h-10.93v8.85h-3.81v-21.74h16.13v3.48Z"/>
        <path class="cls-1" d="m273.92,78.96c-4.98,0-8.67-3.82-8.67-8.51s3.71-8.6,8.73-8.6,8.7,3.82,8.7,8.54-3.71,8.57-8.76,8.57Zm0-13.82c-3,0-4.92,2.36-4.92,5.25s2.07,5.31,4.99,5.31,4.95-2.36,4.95-5.25-2.07-5.31-5.02-5.31Z"/>
        <path class="cls-1" d="m288.99,78.58h-3.75v-16.4h3.75v3.7c1.02-2.45,2.91-4.13,5.79-4.01v3.97h-.22c-3.28,0-5.57,2.14-5.57,6.49v6.24Z"/>
        <path class="cls-1" d="m316.08,61.84c3.56,0,5.73,2.27,5.73,6.27v10.46h-3.75v-9.31c0-2.61-1.21-4.01-3.31-4.01s-3.5,1.43-3.5,4.07v9.25h-3.75v-9.35c0-2.55-1.24-3.97-3.31-3.97s-3.5,1.55-3.5,4.1v9.22h-3.75v-16.4h3.75v2.48c1.05-1.46,2.48-2.83,4.98-2.83,2.35,0,3.99,1.15,4.86,2.89,1.33-1.74,3.06-2.89,5.54-2.89Z"/>
        <path class="cls-1" d="m335.15,78.58v-2.02c-1.12,1.34-2.82,2.36-5.29,2.36-3.1,0-5.82-1.77-5.82-5.06v-.06c0-3.54,2.82-5.28,6.62-5.28,1.98,0,3.25.28,4.52.68v-.4c0-2.27-1.43-3.51-4.03-3.51-1.82,0-3.19.4-4.67,1.02l-1.02-3.01c1.8-.81,3.56-1.37,6.22-1.37,4.83,0,7.18,2.55,7.18,6.93v9.72h-3.71Zm.09-6.96c-.96-.37-2.29-.65-3.75-.65-2.35,0-3.75.96-3.75,2.64v.06c0,1.55,1.39,2.42,3.16,2.42,2.48,0,4.33-1.4,4.33-3.45v-1.02Z"/>
        <path class="cls-1" d="m349.67,78.96c-4.86,0-8.45-3.82-8.45-8.51s3.59-8.6,8.48-8.6c3.1,0,5.02,1.15,6.53,2.83l-2.32,2.52c-1.14-1.21-2.35-2.05-4.24-2.05-2.73,0-4.71,2.36-4.71,5.25s2.01,5.31,4.89,5.31c1.77,0,3.06-.84,4.24-2.05l2.26,2.23c-1.61,1.8-3.5,3.08-6.69,3.08Z"/>
        <path class="cls-1" d="m358.64,59.67v-3.57h4.03v3.57h-4.03Zm.15,18.91v-16.4h3.75v16.4h-3.75Z"/>
        <path class="cls-1" d="m374,78.96c-4.99,0-8.67-3.82-8.67-8.51s3.71-8.6,8.73-8.6,8.7,3.82,8.7,8.54-3.72,8.57-8.76,8.57Zm0-13.82c-3,0-4.92,2.36-4.92,5.25s2.07,5.31,4.98,5.31,4.96-2.36,4.96-5.25-2.08-5.31-5.02-5.31Zm-1.43-5.03l3.28-5.09,3.41,1.52-3.78,3.57h-2.91Z"/>
        <path class="cls-1" d="m389.07,78.58h-3.75v-16.4h3.75v2.55c1.05-1.55,2.57-2.89,5.11-2.89,3.68,0,5.82,2.49,5.82,6.3v10.43h-3.75v-9.31c0-2.55-1.27-4.01-3.5-4.01s-3.69,1.52-3.69,4.07v9.25Z"/>
        <path class="cls-1" d="m213.03,105.76h-4.3v6.99h-3.81v-21.74h8.54c5.05,0,8.24,2.86,8.24,7.3,0,4.9-3.9,7.45-8.67,7.45Zm.12-11.27h-4.43v7.82h4.43c2.88,0,4.67-1.58,4.67-3.91,0-2.58-1.82-3.91-4.67-3.91Z"/>
        <path class="cls-1" d="m227.21,112.75h-3.74v-16.4h3.74v3.69c1.02-2.45,2.91-4.13,5.79-4v3.97h-.22c-3.28,0-5.57,2.14-5.57,6.49v6.24Z"/>
        <path class="cls-1" d="m242.47,113.12c-4.98,0-8.67-3.82-8.67-8.51s3.71-8.6,8.73-8.6,8.7,3.82,8.7,8.54-3.71,8.57-8.76,8.57Zm0-13.82c-3,0-4.92,2.36-4.92,5.25s2.08,5.31,4.99,5.31,4.95-2.36,4.95-5.25-2.07-5.31-5.02-5.31Z"/>
        <path class="cls-1" d="m262.68,96.48v3.1h-4.27v13.17h-3.75v-13.17h-2.08v-3.14h2.08v-1.18c0-3.6,1.79-5.37,5.02-5.37,1.3,0,2.2.19,3.03.43v3.17c-.74-.25-1.39-.4-2.2-.4-1.42,0-2.17.78-2.17,2.48v.9h4.34Z"/>
        <path class="cls-1" d="m271.41,110.05c1.83,0,3.13-.68,4.43-1.96l2.2,1.96c-1.55,1.86-3.68,3.07-6.69,3.07-4.74,0-8.39-3.45-8.39-8.54,0-4.72,3.31-8.57,7.99-8.57,5.2,0,7.83,4.1,7.83,8.85,0,.34-.03.65-.06,1.02h-12.01c.43,2.67,2.29,4.16,4.71,4.16Zm3.65-6.65c-.25-2.42-1.67-4.32-4.15-4.32-2.29,0-3.9,1.77-4.24,4.32h8.39Z"/>
        <path class="cls-1" d="m286.95,113.06c-2.32,0-4.89-.84-6.93-2.46l1.67-2.55c1.77,1.34,3.69,2.02,5.36,2.02s2.54-.68,2.54-1.77v-.06c0-1.27-1.73-1.71-3.65-2.3-2.42-.68-5.11-1.68-5.11-4.81v-.06c0-3.1,2.57-5,5.82-5,2.04,0,4.27.71,6.01,1.86l-1.48,2.67c-1.58-.96-3.25-1.55-4.61-1.55-1.45,0-2.29.68-2.29,1.64v.06c0,1.18,1.77,1.68,3.69,2.3,2.38.75,5.08,1.83,5.08,4.78v.06c0,3.44-2.66,5.15-6.07,5.15Z"/>
        <path class="cls-1" d="m295.68,93.84v-3.57h4.02v3.57h-4.02Zm.15,18.91v-16.4h3.75v16.4h-3.75Z"/>
        <path class="cls-1" d="m311.03,113.12c-4.98,0-8.67-3.82-8.67-8.51s3.72-8.6,8.73-8.6,8.7,3.82,8.7,8.54-3.71,8.57-8.76,8.57Zm0-13.82c-3,0-4.92,2.36-4.92,5.25s2.08,5.31,4.99,5.31,4.95-2.36,4.95-5.25-2.07-5.31-5.02-5.31Z"/>
        <path class="cls-1" d="m326.14,112.75h-3.75v-16.4h3.75v2.54c1.05-1.55,2.57-2.89,5.11-2.89,3.68,0,5.82,2.48,5.82,6.3v10.44h-3.75v-9.32c0-2.55-1.27-4.01-3.5-4.01s-3.68,1.52-3.68,4.07v9.26Z"/>
        <path class="cls-1" d="m350.38,112.75v-2.02c-1.11,1.34-2.81,2.36-5.29,2.36-3.1,0-5.82-1.77-5.82-5.06v-.06c0-3.54,2.82-5.28,6.62-5.28,1.98,0,3.25.28,4.52.68v-.4c0-2.27-1.43-3.51-4.03-3.51-1.83,0-3.19.4-4.68,1.02l-1.02-3.01c1.8-.81,3.56-1.37,6.22-1.37,4.83,0,7.18,2.55,7.18,6.93v9.72h-3.71Zm.09-6.96c-.96-.37-2.29-.65-3.75-.65-2.35,0-3.74.96-3.74,2.64v.06c0,1.55,1.39,2.42,3.16,2.42,2.48,0,4.33-1.4,4.33-3.45v-1.03Z"/>
        <path class="cls-1" d="m357.53,112.75v-22.67h3.75v22.67h-3.75Z"/>
      </g>
      <polygon class="cls-2" points="24.47 21.95 24.47 21.86 24.38 21.95 24.47 21.95"/>
      <g>
        <polygon class="cls-3" points=".98 .12 0 .12 0 1.1 0 2.18 2.06 .12 .98 .12"/>
        <polygon class="cls-3" points="5.89 .12 4.8 .12 0 4.92 0 6 0 7.08 6.97 .12 5.89 .12"/>
        <polygon class="cls-3" points="10.8 .12 9.71 .12 0 9.83 0 10.91 0 11.99 11.88 .12 10.8 .12"/>
        <polygon class="cls-3" points="15.7 .12 14.62 .12 0 14.74 0 15.81 0 16.89 16.78 .12 15.7 .12"/>
        <polygon class="cls-3" points="20.6 .12 19.52 .12 0 19.64 0 20.72 0 21.8 21.69 .12 20.6 .12"/>
        <polygon class="cls-3" points="24.43 .12 2.59 21.95 3.68 21.95 4.76 21.95 24.47 2.24 24.47 1.16 24.47 .12 24.43 .12"/>
        <polygon class="cls-3" points="7.5 21.95 8.58 21.95 9.67 21.95 24.47 7.14 24.47 6.06 24.47 4.98 7.5 21.95"/>
        <polygon class="cls-3" points="12.4 21.95 13.48 21.95 14.57 21.95 24.47 12.05 24.47 10.96 24.47 9.88 12.4 21.95"/>
        <polygon class="cls-3" points="17.31 21.95 18.39 21.95 19.47 21.95 24.47 16.96 24.47 15.87 24.47 14.79 17.31 21.95"/>
        <polygon class="cls-3" points="22.22 21.95 23.3 21.95 24.38 21.95 24.47 21.86 24.47 20.78 24.47 19.7 22.22 21.95"/>
      </g>
    </g>
  </g>
</svg>